<?xml version="1.0" encoding="iso-8859-1"?>
<!-- Generator: Adobe Illustrator 16.0.0, SVG Export Plug-In . SVG Version: 6.00 Build 0)  -->
<!DOCTYPE svg PUBLIC "-//W3C//DTD SVG 1.1//EN" "http://www.w3.org/Graphics/SVG/1.1/DTD/svg11.dtd">
<svg version="1.1" id="Capa_1" xmlns="http://www.w3.org/2000/svg" xmlns:xlink="http://www.w3.org/1999/xlink" x="0px" y="0px"
	 width="48.597px" height="48.598px" viewBox="0 0 48.597 48.598" style="enable-background:new 0 0 48.597 48.598;"
	 xml:space="preserve">
<g>
	<g>
		<path d="M35.773,0H12.825C9.422,0,6.654,2.769,6.654,6.171v36.255c0,3.402,2.768,6.172,6.171,6.172h22.948
			c3.402,0,6.171-2.77,6.171-6.172V6.171C41.944,2.769,39.175,0,35.773,0z M24.813,46.324c-1.059,0-1.918-0.858-1.918-1.918
			c0-1.062,0.859-1.92,1.918-1.92c1.06,0,1.918,0.859,1.918,1.92C26.732,45.466,25.873,46.324,24.813,46.324z M37.316,40.176H11.282
			V6.171c0-0.85,0.692-1.543,1.543-1.543h22.948c0.852,0,1.543,0.693,1.543,1.543V40.176z"/>
		<path d="M24.299,8.539c-4.949,0-8.961,2.973-8.961,6.641c0,3,2.684,5.531,6.367,6.356v1.433h0.809v13.016l1.172,0.77V22.969h0.404
			v14.026l0.465,0.403l2.162-2.143v-0.849l-0.646-0.242l0.646-0.485v-0.443l-1.414-1.133l1.213-1.293l-0.445-0.565l0.445-0.364
			v-0.605l-0.85-0.931l0.404-0.889l-0.768-0.688v-0.889l1.213-1.132v-1.778h0.889v-1.564c3.417-0.937,5.857-3.366,5.857-6.225
			C33.261,11.512,29.25,8.539,24.299,8.539z M24.3,14.191c-1.203,0-2.178-0.92-2.178-2.056c0-1.135,0.975-2.056,2.178-2.056
			c1.204,0,2.178,0.921,2.178,2.056C26.477,13.271,25.501,14.191,24.3,14.191z"/>
	</g>
</g>
<g>
</g>
<g>
</g>
<g>
</g>
<g>
</g>
<g>
</g>
<g>
</g>
<g>
</g>
<g>
</g>
<g>
</g>
<g>
</g>
<g>
</g>
<g>
</g>
<g>
</g>
<g>
</g>
<g>
</g>
</svg>
